<svg xmlns="http://www.w3.org/2000/svg" width="18" height="18" viewBox="0 0 18 18"><path fill="#4285F4" d="M17.64 9.2045c0-.6382-.0573-1.2518-.1636-1.8409H9v3.4818h4.8436c-.2086 1.125-.8427 2.0782-1.7959 2.7218v2.2582h2.9082c1.7018-1.5668 2.6841-3.8736 2.6841-6.621z"/><path fill="#34A853" d="M9 18c2.43 0 4.4673-.806 5.9564-2.1818l-2.9082-2.2582c-.8059.5405-1.8382.8623-2.9836.8623-2.2732 0-4.2041-1.526-4.9-3.5636H1.0918v2.3282A8.9953 8.9953 0 0 0 9 18z"/><path fill="#FBBC05" d="M4.1 10.8455c-.14-.42-.22-.86-.22-1.32s.08-.9.22-1.32V5.8773H1.0918a8.9953 8.9953 0 0 0 0 6.2454L4.1 10.8455z"/><path fill="#EA4335" d="M9 3.5727c1.3218 0 2.5077.4541 3.4405 1.346l2.5818-2.5818C13.4632.8918 11.426 0 9 0A8.9953 8.9953 0 0 0 1.0918 5.8773L4.1 8.2055c.6959-2.0377 2.6268-3.5637 4.9-3.5637z"/></svg>